<?xml version="1.0" standalone="no"?>
<!DOCTYPE svg PUBLIC "-//W3C//DTD SVG 20010904//EN"
 "http://www.w3.org/TR/2001/REC-SVG-20010904/DTD/svg10.dtd">
<svg version="1.0" xmlns="http://www.w3.org/2000/svg"
 width="1280.000000pt" height="1280.000000pt" viewBox="0 0 1280.000000 1280.000000"
 preserveAspectRatio="xMidYMid meet">
<metadata>
Created by potrace 1.14, written by Peter Selinger 2001-2017
</metadata>
<g transform="translate(0.000000,1280.000000) scale(0.100000,-0.100000)"
fill="#000000" stroke="none">
<path d="M0 6400 l0 -6400 6400 0 6400 0 0 6400 0 6400 -6400 0 -6400 0 0
-6400z m4595 5694 c83 -146 151 -269 153 -273 2 -5 -190 -193 -425 -418 -505
-484 -526 -503 -533 -503 -7 0 -310 535 -310 548 0 5 24 31 53 58 96 88 557
528 778 742 64 61 120 112 125 112 5 -1 77 -120 159 -266z m447 -799 l199
-350 -118 -115 c-65 -63 -179 -173 -253 -245 -74 -71 -191 -183 -260 -250
-443 -428 -611 -587 -614 -584 -2 3 -332 585 -402 711 -4 6 261 262 870 843
133 126 268 255 301 287 33 32 64 56 69 55 5 -2 98 -160 208 -352z m1888 40
c831 -97 1537 -350 2218 -792 529 -343 1016 -820 1386 -1357 730 -1059 1023
-2401 800 -3666 -14 -80 -28 -160 -31 -178 -4 -24 -10 -31 -21 -27 -51 19
-430 258 -427 268 8 22 44 300 55 417 10 119 15 648 6 691 -3 13 -8 61 -11
106 -17 261 -98 663 -195 968 -84 263 -255 647 -395 885 -628 1065 -1644 1825
-2830 2115 -369 90 -690 128 -1080 128 -250 1 -417 -11 -644 -43 -74 -11 -135
-19 -136 -17 -1 1 -31 52 -67 112 -35 61 -91 154 -122 208 -32 54 -57 100 -54
102 16 16 446 79 646 95 168 13 745 4 902 -15z m-1574 -587 c9 -18 52 -91 94
-163 42 -71 115 -195 162 -275 47 -80 132 -223 188 -319 l103 -174 -34 -30
c-38 -34 -455 -435 -714 -687 -172 -168 -451 -437 -471 -455 -11 -9 -74 -70
-385 -373 l-106 -103 -60 108 c-33 59 -96 171 -140 248 -279 491 -353 625
-353 633 0 5 30 37 68 72 37 35 128 122 202 194 74 72 189 182 255 245 66 64
181 174 255 246 74 72 241 232 370 355 129 123 301 288 381 367 80 79 151 143
157 143 6 0 19 -15 28 -32z m-1996 -580 c35 -62 88 -155 117 -206 l54 -92 -33
-28 c-88 -73 -236 -213 -358 -338 -727 -749 -1166 -1733 -1247 -2795 -14 -177
-7 -619 11 -779 45 -393 113 -700 232 -1040 458 -1315 1522 -2359 2849 -2795
319 -105 662 -176 1006 -210 219 -21 756 -13 958 14 231 32 368 57 551 102
627 156 1231 455 1736 861 159 127 395 349 514 481 l94 106 46 -26 c25 -14
121 -71 213 -126 148 -88 166 -101 155 -116 -117 -151 -442 -478 -642 -644
-758 -631 -1652 -1016 -2631 -1131 -231 -27 -305 -31 -615 -30 -318 2 -520 18
-788 64 -815 139 -1549 454 -2189 939 -212 160 -315 251 -533 470 -420 422
-710 828 -961 1346 -415 859 -574 1805 -464 2755 140 1195 719 2319 1605 3115
104 93 249 215 256 215 1 0 30 -51 64 -112z m2708 -625 c38 -65 172 -293 297
-508 126 -214 257 -437 292 -495 l63 -105 -153 -149 c-83 -82 -226 -222 -317
-310 -91 -89 -327 -318 -525 -511 -198 -192 -436 -424 -530 -515 -93 -91 -249
-242 -345 -336 -247 -241 -304 -294 -312 -286 -3 4 -88 153 -188 332 -100 179
-211 375 -245 435 -143 251 -265 473 -265 482 0 6 53 61 118 123 64 62 178
172 252 244 74 72 268 260 430 416 413 398 552 533 730 706 316 308 615 594
622 594 4 0 38 -53 76 -117z m2876 -763 c-107 -234 -209 -454 -226 -490 -16
-36 -49 -108 -74 -160 -24 -52 -140 -304 -258 -560 l-215 -465 -188 -3 c-103
-2 -364 0 -580 3 -389 7 -391 7 -395 29 -1 11 -1 274 2 584 l5 563 295 130
c162 72 459 203 660 291 201 89 446 197 545 240 187 83 349 154 495 218 47 20
95 42 105 48 11 6 21 8 23 4 1 -4 -86 -199 -194 -432z m-2134 -1121 l1 -614
-33 -29 c-18 -16 -159 -153 -313 -305 -154 -152 -505 -497 -780 -766 -275
-269 -597 -584 -715 -700 -118 -116 -261 -256 -318 -310 l-103 -100 -567 3
c-312 1 -591 5 -621 9 l-53 6 98 95 c55 53 214 208 354 346 816 800 863 846
1670 1636 272 266 605 593 740 725 505 496 635 623 637 621 1 -1 3 -279 3
-617z m958 -746 c221 -3 401 -9 400 -12 -2 -4 -136 -136 -298 -295 -162 -159
-511 -501 -775 -760 -787 -772 -1435 -1407 -1674 -1641 -124 -121 -344 -337
-489 -480 -145 -143 -267 -261 -273 -263 -5 -2 -7 47 -4 125 3 70 8 351 11
624 l6 497 222 218 c296 293 722 711 1235 1214 233 228 509 500 615 603 l191
188 215 -5 c118 -3 396 -9 618 -13z m1043 -394 c266 -161 546 -328 621 -373
76 -45 136 -85 135 -90 -5 -17 -2128 -2127 -2146 -2134 -5 -1 -59 28 -122 66
-63 38 -265 158 -449 267 -580 343 -690 410 -690 416 0 3 35 39 78 80 65 62
1197 1179 1887 1861 110 109 200 198 201 198 0 0 218 -131 485 -291z m977
-593 c31 -18 197 -118 367 -221 171 -103 367 -222 437 -264 70 -42 128 -78
128 -81 0 -3 -379 -384 -843 -848 l-843 -843 -425 252 c-233 139 -458 272
-499 296 -41 25 -76 46 -77 47 -1 1 349 353 778 782 430 428 811 809 847 847
36 37 68 67 70 67 2 0 29 -15 60 -34z m1459 -871 c192 -112 355 -208 363 -213
12 -7 -119 -144 -606 -632 l-621 -624 -169 101 c-93 55 -258 153 -366 217
-109 65 -198 120 -198 124 0 13 1234 1241 1242 1236 4 -3 164 -97 355 -209z
m847 -487 c142 -85 258 -157 258 -162 0 -4 -214 -223 -476 -486 l-476 -478
-282 166 c-155 92 -282 170 -282 173 -1 3 212 222 473 487 472 479 474 481
500 467 14 -8 142 -83 285 -167z m-7853 95 l126 -6 -251 -246 c-138 -135 -332
-325 -431 -421 -99 -96 -238 -231 -308 -300 -70 -69 -132 -126 -137 -128 -12
-4 -250 284 -250 303 0 4 93 98 207 209 113 110 297 290 407 398 l201 197 155
1 c85 0 212 -3 281 -7z m249 -418 l-1 -278 -242 -237 c-133 -131 -321 -314
-417 -408 l-175 -170 -35 28 c-19 16 -86 77 -149 137 l-113 108 263 257 c145
141 399 389 564 551 165 162 301 293 303 292 2 -2 3 -128 2 -280z m-2257
-1303 c43 -53 99 -121 124 -150 l47 -54 -94 -90 c-52 -50 -205 -200 -340 -333
-135 -133 -251 -245 -258 -249 -10 -6 -11 46 -6 275 l7 283 211 208 c116 114
216 207 221 207 6 0 45 -44 88 -97z m442 -478 l140 -134 -210 -209 -210 -208
-279 6 -280 6 340 337 c186 186 344 337 349 337 6 0 73 -61 150 -135z"/>
</g>
</svg>
